<?xml version="1.0" encoding="UTF-8" standalone="no"?>
<svg width="206px" height="274px" viewBox="0 0 206 274" version="1.1" xmlns="http://www.w3.org/2000/svg" xmlns:xlink="http://www.w3.org/1999/xlink" xmlns:sketch="http://www.bohemiancoding.com/sketch/ns">
    <!-- Generator: Sketch 3.1.1 (8761) - http://www.bohemiancoding.com/sketch -->
    <title>大陳 2</title>
    <desc>Created with Sketch.</desc>
    <defs></defs>
    <g id="web" stroke="none" stroke-width="1" fill="none" fill-rule="evenodd" sketch:type="MSPage">
        <g id="Mobile-Portrait" sketch:type="MSArtboardGroup" transform="translate(-61.000000, -781.000000)">
            <rect id="Rectangle-2" fill="#526B6B" sketch:type="MSShapeGroup" x="0" y="568" width="320" height="1444"></rect>
            <g id="大陳-2" sketch:type="MSLayerGroup" transform="translate(61.000000, 781.000000)" fill="#ACC3B1">
                <path d="M185.413698,178.434235 C181.932419,178.98358 177.733094,177.749221 174.311871,178.434235 C173.796996,178.537326 173.506032,179.076705 172.986348,179.2495 C172.695832,179.346097 172.364882,179.175181 172.067885,179.2495 C169.648119,179.855009 167.539994,180.983229 165.032065,180.983229 C164.341218,180.983229 159.729974,181.203154 159.729974,180.677075 C159.050013,180.677075 158.370052,180.677075 157.690091,180.677075 C157.066115,180.231076 156.370794,180.372067 155.650208,180.372067 C154.885762,179.890831 153.97108,180.065912 153.101214,180.065912 L152.488905,179.759758 C152.183133,179.759758 151.87736,179.759758 151.571588,179.759758 C151.100632,179.421305 150.729872,179.491403 150.246065,179.2495 C148.580913,179.044166 147.321382,178.332184 145.555137,178.332184 C145.02186,177.723557 143.006143,178.403038 143.006143,177.719875 L141.068311,177.719875 L140.457149,177.414867 C138.960844,177.458383 136.517273,176.98468 136.517273,178.523673 C136.517273,178.693759 136.397004,178.913662 136.517273,179.033931 C136.684225,179.200883 137.360696,178.864218 137.524028,179.033931 C138.210858,179.74759 137.5689,179.211989 138.417266,179.645093 C139.718781,180.309538 138.070619,179.604601 138.72342,180.257402 C140.452042,181.986024 140.575529,182.664289 141.884723,184.846279 C141.991219,185.023772 141.993543,187.421661 141.884723,187.497325 C141.030556,188.091238 140.478345,189.616917 139.755401,190.33986 C139.606887,190.488375 139.103186,190.992075 138.951603,191.143659 C138.831604,191.263658 138.536259,191.002213 138.442492,191.143659 C138.386105,191.228718 138.514653,191.377652 138.442492,191.449813 C138.301142,191.591163 137.984146,191.308464 137.842796,191.449813 C137.804344,191.488266 137.60526,192.102687 137.230487,191.743355 C136.494547,191.037734 137.453655,190.804285 136.12168,190.124291 C135.528747,189.821589 135.645139,189.524595 134.909675,189.524595 C134.20727,189.172733 134.298513,189.446293 134.298513,188.912286 C133.796781,188.935492 133.21401,188.7451 132.870939,188.402028 C132.666836,188.402028 132.442677,188.490261 132.25863,188.402028 C132.170398,188.35973 132.25863,188.206334 132.25863,188.108487 C132.122561,188.040835 131.994639,187.953422 131.850424,187.905531 C130.859538,187.576475 129.252734,187.905531 128.192623,187.905531 C127.627421,187.905531 126.95277,187.818715 126.560946,188.210539 C126.537369,188.234116 126.510319,189.299354 126.560946,189.333105 C126.730452,189.446109 127.025323,189.191838 127.172108,189.333105 C127.229684,189.388516 128.241071,191.119683 127.784417,191.4372 C127.531425,191.613109 124.895847,191.585704 124.648341,191.4372 C123.696856,190.866309 122.678239,190.503175 121.691141,190.009626 C120.706659,189.517385 119.427884,187.542266 118.733941,186.848323 C118.086713,186.201096 117.137214,185.920914 116.387903,185.420749 C115.920917,185.109036 115.79625,184.503432 115.164432,184.503432 C114.36351,183.968483 114.662829,184.314346 114.247115,183.482917 C113.381276,183.546036 110.266687,180.897281 109.88642,181.444181 C109.682632,181.737269 111.40458,182.613332 111.40458,183.548276 C111.40458,184.200297 112.426604,184.041212 112.003129,184.759134 C111.713338,185.250421 111.66181,185.011015 111.416046,185.256779 C111.332023,185.340801 111.515953,185.891671 111.416046,185.958526 C110.941676,186.275961 111.218924,185.437004 110.804884,186.263534 C110.619251,186.634104 110.738835,187.292977 110.498729,187.692255 C110.098434,188.357915 108.115424,191.432902 107.643581,191.668823 C105.838789,192.571219 103.871595,194.184022 101.933284,194.830126 C101.739655,194.894669 101.503667,194.739122 101.320975,194.830126 C101.229971,194.875457 101.392866,195.063243 101.320975,195.135134 C100.429341,196.026767 101.032505,195.128046 100.301607,195.441288 C98.9414323,196.02422 97.7923891,197.153942 96.5279947,197.787326 C95.6098607,198.247254 93.1126372,198.816943 92.449375,199.2149 C92.1137731,199.416261 90.5116051,201.385621 89.696278,201.967997 C89.4664854,202.132135 87.564152,203.575153 87.5543433,203.599674 C87.1170846,204.692821 85.6254223,208.448315 86.3434852,209.884441 C87.1495576,211.496586 94.9205867,213.323941 93.3552253,215.977718 C93.1959079,216.24781 88.6415831,218.487879 88.0772139,218.719348 C87.2456017,219.060424 87.0034607,220.286674 86.3434852,220.758085 C85.6734545,221.236678 85.0018497,221.589463 84.4056535,222.185659 C84.1188865,222.472426 83.6302794,223.396121 83.2842337,223.511182 C83.090919,223.575459 82.8552164,223.419938 82.6730714,223.511182 C82.3845346,223.655721 82.595111,224.201451 82.3669169,224.429645 C81.6511273,225.145435 80.4536154,226.056459 79.7158714,226.978639 C78.8890572,228.012157 75.3850292,229.025308 74.2085308,229.731736 C72.3224086,230.864258 72.5335362,230.66351 70.74222,231.261362 C69.8317082,231.565245 68.4236986,233.579883 67.8870716,234.11651 C67.7427489,234.260833 67.4573179,234.025233 67.2747626,234.11651 C66.7398283,234.383977 67.0159296,234.47645 66.7645051,234.728819 C66.4297266,235.064856 66.6209857,234.334364 65.9492399,235.034974 C65.4074377,235.600056 65.7041128,231.628544 65.6556985,231.580129 C64.5353892,230.765975 66.5256586,231.847327 65.0560026,230.980434 C64.5073167,230.656785 62.7596756,230.980434 62.0988027,230.980434 C61.9287168,230.980434 61.6828918,230.838914 61.5885452,230.980434 C61.3192108,231.384435 61.9488349,231.286588 61.2950038,231.286588 C61.3848715,231.563329 61.1857493,232.253012 60.989996,232.382782 C59.8138157,233.162497 59.3053891,234.300208 58.4398554,235.748187 C57.4933781,237.33158 58.6823123,235.200723 57.828693,236.054342 C57.7267857,236.156249 57.6244459,236.869751 57.5225386,236.971659 C56.2935365,237.894506 54.3880032,244.303713 54.0550811,245.639156 C53.5991046,247.468205 52.3224991,248.899183 52.3224991,250.73829 C52.3224991,253.02225 56.8521694,253.448333 57.1796914,252.95705 C57.771861,252.068796 59.5022616,251.316948 60.4430459,249.99985 C60.7366218,249.588844 61.1797323,248.752906 61.4624141,248.470225 C61.6506495,248.281989 62.1747942,248.26856 62.3797309,247.857916 C62.9613933,246.692404 63.6572328,247.809548 64.3490886,247.117692 C64.3682179,247.098563 64.6579807,245.061135 64.8058499,244.981028 C65.5112402,244.59889 66.6423932,244.756084 66.7645055,244.637506 C67.552407,243.872411 66.2031379,243.918056 66.7645055,243.170266 C67.7092169,241.911831 68.5635116,243.097963 70.0917425,242.52622 C70.4518888,242.391482 72.8735364,239.882741 72.8735364,239.324072 C73.574192,239.337505 73.5804698,237.987731 74.2085308,237.673406 C76.4980905,236.527553 78.5279183,235.908769 81.0413942,237.163149 C81.3915843,237.337915 83.1969175,237.185252 83.3862852,237.469303 C83.6223677,237.823427 84.1455575,238.081612 84.8138595,238.081612 C85.0209486,238.081612 87.4340226,238.281013 87.5669564,238.081612 C88.3663474,236.882526 88.7470082,235.289983 89.6068396,234.001846 C89.8726056,233.603694 90.3127601,233.200375 90.5241564,232.778374 C90.7097981,232.407786 90.7529474,231.846905 91.0344139,231.452852 C91.9377207,230.188222 93.5318199,227.885517 94.1957168,226.558967 C95.2156766,224.520957 97.8597603,221.365993 99.4978078,219.726103 C100.491967,218.730826 101.343553,217.879098 102.352956,216.870955 C103.225124,215.999876 104.109734,214.872176 105.208105,214.321961 C106.104299,213.873023 109.687842,213.013429 110.371452,213.697039 C110.72955,214.055137 110.371452,216.424339 110.371452,216.936314 C110.371452,217.726634 110.44616,220.153449 110.168495,220.708779 C109.877414,221.290941 109.491297,221.951322 109.352083,222.646611 C109.015047,224.329897 109.352083,226.423129 109.352083,228.152805 C109.352083,229.014582 108.966146,230.951884 109.352083,231.722313 C109.850559,232.717398 111.227343,233.888123 112.183152,234.271307 C113.172899,234.668098 119.511536,237.497287 120.442443,236.604732 C120.547313,236.504183 120.376552,235.932716 120.442443,235.800933 C120.7665,235.15282 120.873641,234.691641 121.054752,233.965153 C120.722646,233.396333 121.486157,233.460712 121.563863,233.149888 C122.06549,231.14338 122.819651,228.712233 123.807849,227.235488 C124.439602,226.291408 128.701734,223.973793 128.701734,223.372437 L129.314043,223.372437 C129.314043,223.168334 129.222766,222.942684 129.314043,222.760129 C129.318194,222.751826 130.096432,222.579502 130.117842,222.557172 C130.363197,222.301274 130.406717,221.76286 130.933107,221.434606 C131.392478,221.148144 133.177093,220.1113 133.177093,219.802929 C133.526526,219.516085 134.424228,219.774413 134.807624,219.293818 C134.871266,219.214042 134.735463,219.059825 134.807624,218.987663 C134.951947,218.843341 135.27561,219.131986 135.419933,218.987663 C135.908415,218.499181 138.148056,215.469248 138.479184,214.806992 C138.592783,214.579795 140.770503,212.717665 141.028178,212.460954 C141.382051,212.108407 143.121335,209.70546 143.374216,209.198747 C143.711142,208.523627 144.553901,208.296592 145.106798,208.07618 C145.733087,207.826511 144.877686,207.609423 145.92321,207.260915 C147.925698,206.593419 149.82382,205.731289 151.735559,205.731289 C152.011791,205.731289 153.289646,205.559049 153.469287,205.731289 C153.863787,206.109536 154.271584,207.032378 154.578094,207.33774 C154.985966,207.744084 156.08364,207.421734 156.08364,208.141539 C156.902354,208.335925 164.081811,209.422027 164.138828,209.36501 C164.431964,209.071874 165.267178,207.060689 164.751137,206.522475 C164.414403,206.171272 164.006402,205.78054 163.641184,205.401055 C163.583459,205.341076 161.612166,204.954292 162.73648,204.291102 C163.339586,203.935353 167.55293,203.73127 168.242674,203.386398 C169.667994,202.673738 170.272045,201.585852 171.60808,200.632154 C172.094618,200.284851 172.444001,200.592603 172.933603,200.429198 C174.891094,199.775885 177.352638,198.7495 178.325132,197.777006 C178.676712,197.425426 178.553065,196.64437 178.83539,196.362045 C179.87388,195.629708 181.040372,192.803913 181.384384,191.773168 C181.475678,191.499625 181.867727,191.419936 181.996693,191.162005 C182.148875,190.85764 182.058767,190.324564 182.200795,190.039439 C182.649856,189.895387 182.361751,189.572329 182.505803,189.428277 C183.247423,188.992811 183.835179,187.688012 184.239532,187.082239 C184.642862,186.477999 184.434783,185.920736 184.953892,185.349657 C185.477445,184.77369 186.308372,184.237183 186.789673,183.513877 C187.05945,183.108451 187.390542,182.2998 187.911092,182.086302 C188.416582,181.878982 189.077809,181.507908 189.326054,181.269891 C189.641314,180.967619 189.435145,180.533301 189.823698,180.263135 C189.867214,180.232878 189.823698,179.715853 189.823698,179.650826 C189.823698,179.581382 189.872082,178.894565 189.823698,178.848174 C189.082748,178.13775 186.39408,179.906244 186.39408,178.044375 L185.413698,178.434235 Z" id="Path-1" sketch:type="MSShapeGroup"></path>
                <path d="M186.911281,173.571862 C188.986931,174.614686 190.555851,176.719964 193.080296,177.225232 C194.672045,177.54382 196.931168,176.521242 197.791667,176.951088 C198.617544,177.363639 199.164265,178.022866 199.895839,178.460167 C200.147968,178.610877 203.82877,178.897904 204.195736,178.734825 C205.006806,178.374387 205.304548,177.760959 205.842145,177.133679 C206.99905,175.783775 206.134836,176.199689 205.842145,175.030021 C205.748915,174.657454 205.77369,173.394391 205.384895,173.199993 C204.94957,172.982331 204.721439,173.886125 204.424104,173.886125 C204.260852,173.886125 204.706346,172.831676 204.652986,172.742743 C204.327375,172.200058 203.79852,172.43708 203.372275,172.010835 C203.227626,171.866186 203.280551,171.553585 203.097617,171.462032 C202.661085,171.243562 195.017153,170.867453 194.086863,170.867453 C193.004969,170.261028 191.523082,170.053462 190.518874,169.678295 C190.11112,169.52596 192.264412,167.765435 192.480059,167.116873 C192.67558,166.528839 191.037494,164.368557 190.696322,163.686213 C190.048488,162.390546 187.613124,160.92931 186.402082,160.443802 C186.2091,160.366435 185.251272,160.356482 185.121371,160.169658 C184.96765,159.948576 184.460119,158.843911 184.709898,158.345288 C185.259046,157.249048 187.121858,156.973734 187.72857,156.058524 C188.266506,155.247061 191.933634,150.082041 191.067677,149.248639 C190.36256,148.57003 188.643886,148.10556 187.780004,147.241677 C187.380317,146.841991 185.208969,147.104348 184.543765,147.104348 C184.103413,147.104348 183.158402,147.304167 182.759514,147.104348 C180.676546,146.06091 175.17923,143.686118 173.840313,142.347201 C173.649496,142.156385 171.350055,140.921559 171.055666,141.203819 C170.92002,141.333877 171.304218,141.406595 171.324667,141.427043 C171.645344,141.747721 171.009903,143.008506 171.324667,143.336794 C172.181257,144.230191 172.555123,146.111198 173.468958,146.990679 C173.869606,147.376264 174.827752,147.297644 175.252695,147.722587 C176.827445,149.297336 180.16307,147.722587 182.004605,152.447692 C182.132475,152.775789 179.982561,152.919643 180.16307,153.208869 C183.870176,159.148709 176.771858,159.829855 177.819775,161.576383 C179.646314,164.620614 184.543765,171.121792 186.911281,171.462031 L186.911281,173.571862 Z" id="Path-2" sketch:type="MSShapeGroup"></path>
                <path d="M23.6984846,236.908642 C23.692394,236.252272 23.7112932,231.715084 23.6984846,231.706178 C23.0489262,231.254532 19.4887009,232.674455 19.3218084,232.848518 C18.8144882,233.377637 19.4624355,238.792876 19.0768246,239.947542 C19.0143229,240.134696 18.4680079,240.446199 18.1794683,240.590739 C17.5767315,240.892673 17.2318595,241.876498 16.7104833,242.222129 C16.5572472,242.323713 16.2153341,242.127031 16.0571932,242.222129 C15.2289323,242.720205 14.4225831,243.326322 13.6908519,243.936098 C13.5793634,244.029005 13.6941456,245.548582 13.6908519,245.568406 C13.2496104,248.224149 13.0441825,247.928126 11.3245106,249.647798 C10.8179927,250.154316 12.0971297,249.628469 11.0804444,250.137766 C10.1557023,250.601004 8.98368814,251.715312 8.22413553,252.095801 C7.31931484,252.54906 5.9300917,252.69425 5.0420992,253.074818 C4.1508852,253.456767 2.79635113,252.806615 1.85914534,253.074818 C1.29663671,253.235793 1.04099925,253.729336 0.554400339,253.973092 C0.228630396,254.136283 0.326559389,253.694071 0.0745257719,254.207983 C-0.238202334,254.845655 0.309416573,255.67901 0.309416573,255.98251 C0.309416573,256.835085 0.133238075,258.00746 0.636061594,258.512173 C0.736274039,258.612763 1.10080563,259.11248 1.37009535,259.247125 C1.84276916,259.483462 9.26462199,259.120594 9.85644309,259.002141 C10.6255748,258.848199 13.5682547,257.661021 13.9257427,257.288172 C14.0134097,257.196738 14.0534519,255.479254 14.1707265,255.166815 C14.5595241,254.130992 15.6503742,251.476222 16.1296791,251.014936 C16.3580897,250.795112 16.3002658,251.586565 16.6187291,251.586565 C17.2200389,251.586565 18.4397857,251.820446 18.9850704,251.586565 C19.5594007,251.340226 20.6091191,251.153686 21.1688208,250.852531 C21.4059291,250.724952 21.4987055,250.401316 21.739532,250.280902 C23.0224994,249.639419 24.4412824,248.92855 25.8198422,248.241206 C26.8664756,247.719359 31.2427952,248.581574 33.3170794,247.751239 C34.8282174,247.14633 34.1402416,245.014123 35.0301307,244.160896 C35.174548,244.022428 34.8930228,241.096828 34.7851469,240.988953 C34.5073971,240.711203 34.0083201,240.484967 33.8162224,240.100772 C33.1892364,238.8468 33.3262548,237.045733 33.3262548,235.541505 C33.3262548,235.432623 33.4156506,235.277018 33.3262548,235.21486 C32.8781961,234.903319 32.2868589,235.255701 31.7141332,234.969876 C29.9389692,234.083959 25.8201339,234.18325 24.5536339,235.44975 C24.4179879,235.585396 24.5536339,236.523456 24.5536339,236.736145 L23.6984846,236.908642 Z" id="Path-3" sketch:type="MSShapeGroup"></path>
                <path d="M19.6548762,269.272191 C18.6508132,271.527475 23.6327912,274.680055 24.1233066,273.974594 C24.3647699,273.627321 24.1290609,270.537345 24.2866292,269.905295 C24.6074458,268.61841 26.0386302,264.0522 26.8777683,263.468736 C27.0847036,263.324852 26.9723115,261.986692 27.3668183,261.591445 C27.8519755,261.105378 28.7808626,259.942279 29.2239237,259.48018 C29.3346278,259.364719 29.5906907,259.593288 29.7037983,259.48018 C30.5794953,258.604483 33.158278,256.625748 33.7841084,255.39987 C34.0710776,254.837755 33.7841084,253.36798 33.7841084,252.716977 C33.7841084,252.536279 33.8999561,251.700578 33.7841084,251.58473 C32.9710538,250.771675 28.7151238,252.593154 28.3265674,253.370267 C28.0329685,253.957465 26.8944615,254.171624 26.3685324,254.829159 C25.7624004,255.586966 26.1511601,255.322014 25.3885973,256.05316 C25.2731364,256.163864 25.5014924,256.419715 25.3885973,256.533035 C22.881523,259.049534 20.575171,266.708634 20.575171,270.375076 L19.6548762,269.272191 Z" id="Path-4" sketch:type="MSShapeGroup"></path>
                <path d="M132.875688,12.4555888 C133.732565,11.0478949 134.891845,11.7652931 135.9574,11.1367628 C136.139668,11.0292498 136.89101,11.2958048 136.997436,11.1367628 C137.079756,11.0137451 136.894794,10.799354 136.997436,10.6927024 C137.198862,10.4834087 137.659569,10.8941279 137.868863,10.6927024 C137.971505,10.593919 137.766036,10.3639268 137.868863,10.265336 C138.079609,10.0632728 138.799575,10.4200763 139.057476,10.265336 C139.522184,9.98651083 139.761512,9.61532983 140.244419,9.3738764 C140.508949,9.24161173 141.39814,9.1299784 141.581609,8.94650999 C141.686668,8.84145047 141.581609,8.64935679 141.581609,8.50078019 C143.333862,9.10664363 143.641388,6.97280959 144.846955,6.57095378 C145.128859,6.47698568 145.491121,6.73571338 145.738415,6.57095378 C146.014276,6.38716084 145.983626,5.94637811 146.182475,5.68116357 C146.45198,5.32171167 147.640703,4.02144984 148.113971,3.75133716 C148.242527,3.67796539 148.45138,3.85397927 148.558031,3.75133716 C148.640408,3.67205718 148.658581,1.51138809 148.558031,1.41083835 C148.4573,1.31010712 148.231396,1.51156957 148.130665,1.41083835 C148.029934,1.31010712 148.233307,1.08225533 148.130665,0.983471944 C148.101116,0.955034204 147.269419,1.01201659 147.240875,0.983471944 C146.322278,0.0648753715 148.642792,1.01404548 146.795145,0.093681738 C146.526135,-0.0403193154 141.629576,0.0350645321 141.468089,0.093681738 C139.639885,0.757293726 140.845939,0.484565039 139.389686,1.57777835 C137.835104,2.74480827 139.189137,1.49660808 137.608437,2.02350815 C137.606755,2.02406881 136.721433,2.91162894 136.718646,2.91329836 C136.512754,3.03664847 136.160789,2.72827319 135.975763,2.91329836 C135.870704,3.01835788 136.042209,3.22613721 135.975763,3.35902816 C135.703784,3.90298738 134.406309,4.2931665 133.89736,4.54764097 C133.368171,4.81223565 131.977625,4.54764097 131.373228,4.54764097 C130.795229,4.54764097 129.494722,4.30004662 128.997671,4.54764097 C128.354691,4.86792715 128.549624,4.99170137 127.810728,4.99170137 C127.746106,4.99170137 125.921264,5.9462307 125.453535,6.18031418 C124.757083,6.52886637 123.605617,7.20059171 123.226556,7.96156399 C123.160309,8.09455441 123.331615,8.30223427 123.226556,8.40729379 C123.121496,8.51235331 122.885885,8.30223427 122.780826,8.40729379 C121.735822,9.4522975 124.596137,12.3429187 124.840865,12.9547394 C124.989985,13.3275381 125.288347,13.6277129 125.435172,13.9947756 C125.539295,14.2550846 125.244918,15.1400416 125.435172,15.3302956 C125.540231,15.4353552 125.773656,15.2274685 125.880902,15.3302956 C125.936136,15.3832542 125.943639,17.1983818 125.880902,17.2417586 C125.763726,17.3227743 125.552126,17.1389315 125.453535,17.2417586 C125.389224,17.3088327 125.27356,18.2036764 125.156382,18.2817949 C124.950343,18.419154 124.554864,18.0784836 124.413499,18.2817949 C124.332174,18.3987559 124.516326,18.6105705 124.413499,18.7091613 C124.179842,18.9331918 123.767307,18.9279866 123.540403,19.1548911 C123.439672,19.2556223 123.641134,19.4815262 123.540403,19.5822575 C123.394887,19.7277735 122.812823,19.4367414 122.667307,19.5822575 C122.470403,19.7791611 122.569012,20.2755969 122.371823,20.4720477 C122.038973,20.8036511 121.425564,20.6571569 121.034633,20.9177775 C119.611717,21.8663882 118.320685,23.1662112 116.877827,23.8876401 C116.376153,24.1384773 114.528112,24.1277261 113.909634,24.3333699 C113.10283,24.0637936 113.080299,25.0536638 112.572445,25.2231601 C111.917546,25.4417327 111.40424,25.4236717 110.791195,25.6688899 C109.870685,26.037094 111.043779,25.8620353 110.494042,26.4117729 C110.268414,26.6374007 109.835656,26.6164344 109.604251,26.8391393 C109.367814,27.0666884 109.753525,33.5956324 109.604251,33.6945887 C109.480415,33.7766828 109.282145,33.6121732 109.158522,33.6945887 C108.939197,33.8408054 105.891699,37.9798526 105.703627,38.1052341 C105.313212,38.365511 104.296479,38.1782633 103.922377,38.5509639 C102.994801,39.4750659 105.343766,38.5071952 103.476648,39.4407542 C101.747105,40.3055253 104.744541,38.0879305 102.438281,39.7379074 C102.044221,40.0198308 101.698607,40.74654 101.249668,40.9265202 C100.14616,41.3689176 96.5200099,37.8530641 95.053761,37.8530641 C94.7632838,37.8530641 93.3372414,38.0480076 93.142298,37.8530641 C93.0372384,37.7480046 93.2473575,37.5123938 93.142298,37.4073343 C92.7099908,36.9750271 89.9990078,37.4073343 89.3010085,37.4073343 C89.291531,36.1895751 87.952827,35.1050325 87.5364527,34.6886582 C87.1103355,34.2625409 87.9438452,34.2429283 86.6633565,34.2429283 C86.1144339,33.6919421 86.429022,33.7971985 85.7735663,33.7971985 L85.3278365,33.3531381 C84.9385018,33.4534313 81.8121434,34.4145615 80.6200767,34.3464298 C80.2893649,34.3275283 82.9139062,33.1298215 84.3828256,31.3070111 C85.5298777,29.8836121 85.5906652,27.748633 85.4947765,27.6654925 C85.1020705,27.3249958 82.0884381,28.0536699 81.9306075,28.2049981 C81.8277804,28.3035888 78.5803925,31.8238657 78.5166845,31.9512818 C78.4265877,32.1314753 77.4985073,33.6236759 77.3961522,33.7971998 C77.3180425,33.9296201 73.8065372,35.4076009 73.8907492,35.4883436 C73.9979947,35.5911707 73.0980907,37.3717136 73.2309817,37.438159 C74.5350452,38.0901908 76.7379227,35.8508048 78.1185754,35.4883436 C78.8437607,35.2979615 79.0713446,36.6682923 79.4081441,36.9924302 C79.5147956,37.0950723 79.7041843,36.9924302 79.8522045,36.9924302 C80.0007811,37.1410068 80.1812804,37.2633976 80.2979343,37.43816 C81.0766007,38.6047015 80.9316863,39.2673569 81.1893939,40.5549298 C81.3129034,41.1720146 81.7665615,41.4625484 81.9306075,42.0390264 C82.1693704,42.8780689 81.9511199,42.525781 82.3763373,43.3762158 C82.9037881,44.4311175 80.0898458,51.4093299 80.6200767,52.1719092 C80.7495689,52.3581451 85.0458894,50.7449475 85.9405063,50.7449475 C86.2309819,50.7449475 86.6109003,50.9546184 86.8119331,50.7449475 C88.3265297,49.1652705 85.3705325,51.4255858 88.0005459,49.8534878 C88.9601811,49.2798632 88.681428,49.1815823 88.8903361,48.9636976 C89.0574783,48.7893735 89.4769853,49.1619832 89.6148557,48.9636976 C89.6961802,48.8467366 89.5141245,48.6370625 89.6148557,48.5363312 C89.9001594,48.2510275 92.0854905,48.2571958 92.5296282,48.1089648 C93.8755097,47.6597769 94.7087619,46.672677 96.0937972,46.327715 C97.5453638,45.9661825 97.9175969,45.7123725 99.0619904,45.1391022 C99.2699321,45.0349363 100.106327,45.3119094 100.250603,45.1391022 C100.617945,44.6991177 102.205236,44.3631861 102.580684,44.1128871 C102.827931,43.9480562 103.190169,44.2066437 103.472144,44.1128871 C103.87017,43.9805436 104.634996,41.6320662 105.020532,41.4668363 C105.202617,41.3888001 105.425091,41.5237605 105.614838,41.4668363 C105.769664,41.4203885 107.60238,39.9794619 107.969909,39.7953528 C109.828416,38.8643556 107.490942,39.8285896 108.415639,38.9038932 C108.625758,38.6937741 109.092607,39.1095474 109.307098,38.9038932 C109.409925,38.8053024 109.206367,38.577258 109.307098,38.4765268 C109.365493,38.4181325 110.748858,38.4420477 110.772831,38.4765268 C110.937535,38.713404 110.95474,41.9781315 110.772831,42.1525456 C110.665586,42.2553727 110.432161,42.0474861 110.327102,42.1525456 C110.166265,42.3133826 110.188854,45.2617989 110.327102,45.3995286 C110.537615,45.6092531 111.008442,45.1894096 111.218561,45.3995286 C111.323621,45.5045881 111.115734,45.738013 111.218561,45.8452584 C111.358502,45.9912127 112.587888,45.8452584 112.832871,45.8452584 C113.913139,45.8452584 114.745003,46.6930907 115.95131,46.2909882 C117.189983,45.8780975 118.378078,44.930093 119.51381,44.3611618 C119.854284,44.1906052 122.703959,44.1118153 123.077979,44.3611618 C123.221524,44.4568587 123.222264,45.5328668 123.375132,45.6799878 C123.591298,45.8880276 124.048236,45.7677125 124.264922,45.9754716 C124.591801,46.2888833 124.745201,47.7054782 124.562076,47.888604 C124.457016,47.9936636 124.239969,47.8061886 124.116346,47.888604 C124.113026,48.1879706 123.230974,48.1835521 123.226556,48.1857572 C122.536453,48.530161 122.807196,49.1654886 122.483673,49.5029138 C122.220156,49.7777529 121.143881,49.2381044 120.867693,49.5029138 C120.764866,49.6015046 120.968425,49.829549 120.867693,49.9302802 C120.5745,50.2234734 119.42328,49.6425345 119.12317,49.9302802 C118.948846,50.0974225 119.324116,50.5208361 119.12317,50.6547999 C118.875924,50.8196308 118.507611,50.5444399 118.231711,50.6547999 C116.51671,51.3408001 118.887602,50.5864428 117.934558,51.2491063 C117.817596,51.3304307 117.607922,51.148375 117.507191,51.2491063 C117.22161,51.5346877 117.197804,53.8945321 117.063131,54.1638787 C116.671129,54.947882 116.270811,54.9565695 116.171671,55.0553383 C116.023228,55.2032249 115.873847,56.2429523 115.725941,56.3908583 C115.620882,56.4959178 115.385271,56.2857988 115.280211,56.3908583 C115.175152,56.4959178 115.385074,56.7313316 115.280211,56.8365881 C115.175742,56.9414503 114.942803,56.733946 114.836151,56.8365881 C114.733509,56.9353715 114.938978,57.1653637 114.836151,57.2639545 C114.605689,57.4849215 112.540432,59.7725411 112.316561,59.9964129 C112.215829,60.0971441 112.397885,60.3068183 112.316561,60.4237793 C112.214132,60.5710925 110.595082,60.4237793 110.386734,60.4237793 C109.365482,60.4237793 106.712232,58.5507923 106.095173,58.8599009 C105.962332,58.9264461 106.200232,59.2005712 106.095173,59.3056307 C105.885054,59.5157497 105.413832,59.0955117 105.203713,59.3056307 C105.01114,59.4982042 105.203713,60.9330099 105.203713,61.2354571 C105.203713,64.3905524 105.543831,62.6160353 106.539233,64.6143227 C106.971002,65.4811076 105.877827,68.1097229 106.539233,68.7711288 C106.856118,69.0880142 108.178135,69.66508 108.914789,69.9597416 C109.144706,70.0517082 109.519956,69.7539413 109.657672,69.9597416 C110.12139,70.6527132 108.894745,70.2440693 110.103402,70.8495318 C110.105628,70.8506468 110.992073,70.8484126 110.993192,70.8495318 C111.098252,70.9545913 110.888133,71.1902021 110.993192,71.2952616 C111.063946,71.3660152 112.98242,71.7409914 113.368748,71.7409914 C113.566851,71.7409914 113.853168,71.5761604 113.963055,71.7409914 C114.265556,72.1947437 113.586618,73.5915341 113.963055,73.967971 C114.556805,74.5617209 114.408785,73.2278682 114.408785,74.4120314 C114.408785,74.5224161 114.33678,75.5283687 114.408785,75.6006442 C114.480222,75.6723503 115.486602,75.6006442 115.595728,75.6006442 C116.145982,75.6006442 120.554834,75.6861306 120.643994,75.6006442 C120.746821,75.5020534 120.541167,75.2718686 120.643994,75.1732778 C120.860834,74.9653707 121.703067,75.3115011 121.979514,75.1732778 C123.399791,74.4631394 121.810423,75.0503439 122.425244,74.2818182 C122.533064,74.1470424 123.553301,73.7780095 123.612187,73.6891812 C123.846869,73.3351688 123.665145,72.0548386 123.316703,72.0548386 C122.967967,71.7294775 120.723788,69.322368 121.089724,68.9564322 C121.274991,68.7711644 122.556181,68.9564322 122.85261,68.9564322 C124.041223,68.9564322 122.704033,69.1050088 123.29834,68.5107024 C123.375316,68.433726 128.009468,69.7568465 128.138241,69.8212332 C128.888763,70.1964942 128.978579,70.6469142 129.028031,70.6943294 C129.135277,70.7971565 129.368701,70.5892698 129.473761,70.6943294 C130.066959,71.2875276 128.531165,71.1230775 129.919491,71.5841196 C132.318913,72.3809313 131.755237,71.5901124 133.096048,74.2818156 C133.549593,75.1923149 137.998808,79.316863 137.217798,79.707368 C136.677817,79.9773583 134.433238,76.3496106 134.433238,76.9545276 C134.136085,76.9545276 133.823682,76.8605595 133.541778,76.9545276 C133.342442,77.0209731 133.276224,77.2921521 133.096048,77.4002574 C132.181257,77.9491321 130.259501,77.0592222 129.236396,77.4002574 C128.921217,77.5053169 128.660075,77.7408095 128.344936,77.8459872 C127.32073,78.1878158 125.982092,77.5842017 124.931013,77.8459872 C124.608875,77.92622 124.361673,78.209744 124.039553,78.2900476 C123.552578,78.4114493 121.290184,77.9260131 120.941147,78.2900476 C120.769768,78.4687901 121.147186,78.8955715 120.941147,79.0329306 C120.817524,79.1153461 120.628308,78.9664852 120.495417,79.0329306 C120.084423,79.2384276 119.749845,80.2242325 119.603958,80.37012 C119.498898,80.4751796 119.291169,80.3037743 119.158228,80.37012 C117.315829,81.2895911 119.632092,80.341986 118.714167,81.2599102 C117.791936,82.1821411 118.750218,79.8506194 117.822708,81.70564 C117.756262,81.838531 117.927767,82.0463103 117.822708,82.1513698 C117.816139,82.1579384 116.170996,83.0648942 115.744305,83.3199499 C115.539101,83.4426109 115.185413,83.1359583 115.001422,83.3199499 C114.896362,83.4250094 115.001422,83.6171031 115.001422,83.7656797 C113.78932,83.5261317 113.235702,84.206965 112.181805,84.5085627 C111.89612,84.5903182 111.500661,84.2986406 111.290345,84.5085627 C111.028169,84.7702483 110.21544,86.1595053 109.954825,86.2898125 C109.205395,86.6645278 107.630018,87.2774309 106.984963,87.9224857 C106.827193,88.0802553 106.684871,88.9642728 106.095173,89.2596751 C105.962332,89.3262202 105.754699,89.1548129 105.649443,89.2596751 C105.544581,89.3641446 105.715739,89.571392 105.649443,89.7037355 C105.331396,90.3386388 104.43748,90.0359136 104.163677,90.4466185 C104.081261,90.5702417 104.268539,90.7870919 104.163677,90.8923483 C104.059207,90.9972105 103.85196,90.8260524 103.719616,90.8923483 C102.960905,91.2724156 101.775251,92.8038113 100.322387,92.8038113 C99.3918088,92.8038113 98.6353852,93.9437115 97.649678,94.1410007 C97.2131622,94.2283693 96.7275551,93.9758278 96.314158,94.1410007 C95.9242814,94.296776 95.758612,94.7789344 95.4226984,95.0307909 C94.8905839,95.4297521 93.2199991,95.7388543 92.900235,96.2194037 C92.4412177,96.9092263 93.6564899,96.5082016 92.4545052,97.1091939 C92.2552391,97.208827 91.4080838,97.2641557 91.2658923,97.4063471 C91.133167,97.5390725 90.746259,98.9567821 90.5246787,99.1692336 C90.4174333,99.2720607 90.1861944,99.0664064 90.0789489,99.1692336 C89.9761218,99.2678243 90.1437221,99.4697221 90.0789489,99.5966 C90.0237121,99.7047979 88.5443102,101.314163 88.4462757,101.379519 C88.2589967,101.504372 87.3847322,101.632976 87.2576629,101.82358 C87.1752475,101.947203 87.36049,102.162064 87.2576629,102.269309 C87.0652883,102.46995 86.1976177,102.140513 85.9405063,102.269309 C85.7526407,102.363418 85.6827127,102.621071 85.4947765,102.715039 C85.021315,102.95177 84.1111953,102.7631 83.7135267,103.160769 C83.6088607,103.265435 83.8161688,103.498178 83.7135267,103.604829 C83.5260275,103.799653 82.9038377,103.26755 83.2861603,104.032196 C83.7344144,104.928704 85.13483,104.693922 85.7919297,105.351022 C85.8285936,105.387686 86.6446133,107.095165 86.6817199,107.132272 C86.8930088,107.34356 87.9334764,107.078411 88.1674859,107.429425 C88.2499014,107.553048 88.0626237,107.769898 88.1674859,107.875155 C88.3768176,108.085273 88.7919919,107.742513 89.0572761,107.875155 C90.914531,108.803782 88.582378,107.844317 89.5030059,108.764945 C89.7294018,108.991341 93.3439814,111.728582 93.3626588,111.734807 C93.6977924,111.846519 94.6210147,112.395485 95.422698,112.60791 C95.551945,112.642157 98.6346362,107.856806 98.6529867,107.875157 C98.9513719,108.173542 100.735311,105.013128 101.249667,105.356032 C101.37329,105.438448 104.467105,107.326598 104.57435,107.429425 C104.748674,107.596568 100.06802,111.475638 100.268966,111.609602 C100.392589,111.692018 100.721622,112.50285 100.826681,112.60791 C101.0368,112.818029 98.4473325,115.637259 98.6529867,115.85175 C98.7515775,115.954577 98.5522555,116.461981 98.6529867,116.562712 C98.753718,116.663443 99.0619908,116.882676 99.0619908,117.025132 C99.0619908,117.173152 99.4212214,116.902303 99.5260836,117.006773 C99.701511,117.181543 100.021339,117.006773 100.268967,117.006773 C101.305637,117.006773 101.850337,115.982315 102.580684,115.617827 C103.311593,115.253058 102.987009,115.976426 103.719616,115.617827 C103.853064,115.552506 105.179988,115.097268 105.285048,114.992208 C105.450778,114.826477 105.633609,114.017282 106.174838,113.656688 C106.451321,113.472481 106.831377,113.445878 107.066298,113.210958 C107.171357,113.105899 106.983882,112.888852 107.066298,112.765228 C107.454371,112.183118 107.977161,111.682202 108.550394,111.281132 C109.037591,110.940259 111.575257,110.895656 111.978138,110.492774 C112.212707,110.258205 112.189153,109.837405 112.423868,109.602984 C113.499241,109.065297 113.082952,109.390902 113.761057,108.711524 C114.599254,107.871755 115.684974,106.2638 116.729251,105.741661 C117.147521,105.532526 117.22677,106.043046 117.472134,105.446178 C117.734651,104.807583 117.562928,103.154828 117.769287,102.940408 C117.86807,102.837766 118.079692,103.021733 118.196653,102.940408 C118.34523,102.494678 118.454517,102.291634 118.642383,102.197525 C118.774727,102.131229 118.981974,102.302387 119.086444,102.197525 C119.191306,102.092269 118.981384,101.856855 119.086444,101.751795 C119.191503,101.646736 119.399282,101.818241 119.532173,101.751795 C121.056524,100.98962 118.927191,101.239596 120.625629,100.672742 C121.189367,100.484595 121.473558,101.018707 122.056306,100.90207 C122.265114,100.860277 122.429949,101.29029 122.474395,101.680014 C122.499186,101.897398 122.360633,102.200038 122.474394,102.165871 C122.872262,102.046377 123.585129,102.352902 123.95849,102.165871 C124.146356,102.071762 124.224045,101.828247 124.40422,101.720141 C125.105158,101.299579 127.39293,101.720141 128.247179,101.720141 C129.50739,101.720141 134.445371,101.831701 135.076694,102.463024 C135.732178,103.118508 135.325887,105.438236 135.042918,105.671236 C133.896546,106.615173 133.15429,108.55294 132.104246,109.602984 C130.910337,110.796893 130.970976,110.397415 129.645398,111.281134 C128.934295,111.755202 127.767673,111.098739 127.767673,112.203598 C127.471076,112.203598 127.132246,112.051057 126.877883,112.203598 C126.764737,112.271452 124.983632,111.983852 124.877592,112.14381 C124.420352,112.833546 125.629287,112.436558 124.431862,113.03527 C124.298971,113.101716 124.093378,112.932443 123.986133,113.03527 C123.883305,113.133861 124.040189,113.330836 123.986133,113.462636 C123.193218,115.395922 124.130089,112.652395 123.391826,113.75979 C123.124839,114.16027 123.379776,115.541039 122.056306,115.541039 C122.3107,116.42151 121.475254,116.404322 121.164847,117.025136 C121.098401,117.158027 121.267674,117.36362 121.164847,117.470866 C121.066256,117.573693 120.836071,117.368039 120.73748,117.470866 C120.441387,117.779681 120.915112,123.124785 120.73748,123.243651 C120.614462,123.325971 120.398086,123.138985 120.29342,123.243651 C120.118714,123.418357 120.498995,123.847814 120.29342,123.984865 C119.601747,124.44598 120.003413,123.22769 119.40196,124.430595 C119.267169,124.700176 119.142995,125.580049 118.95623,125.766115 C118.409661,126.310637 118.578741,125.148819 118.215017,126.063268 C118.160104,126.201324 118.320076,126.403938 118.215017,126.508998 C118.004898,126.719117 117.533676,126.298878 117.323557,126.508998 C117.104832,126.727722 117.061884,127.494108 116.599038,127.679247 C116.023866,127.909316 116.145238,127.249627 115.707578,128.123307 C115.581942,128.374109 120.407333,129.95421 120.525596,130.03644 C120.642557,130.117764 120.854371,129.933613 120.952962,130.03644 C121.054227,130.142056 117.305621,132.860936 117.220908,132.942464 C117.114257,133.045106 116.924868,132.942464 116.776848,132.942464 C116.776848,133.091041 116.881908,133.283134 116.776848,133.388194 C116.571057,133.593985 116.105563,133.178499 115.903752,133.388194 C115.687105,133.613303 115.680137,134.046657 115.458022,134.259621 C115.350777,134.362448 115.117352,134.154561 115.012292,134.259621 C114.907233,134.36468 115.117154,134.600094 115.012292,134.70535 C114.716292,135.002463 113.527673,134.408719 113.231042,134.70535 C113.125983,134.81041 113.336102,135.046021 113.231042,135.15108 C112.642857,135.739265 112.785313,134.438551 112.785313,135.578447 C112.463911,135.42776 105.972811,139.255796 106.539233,139.649636 C106.952619,139.937069 110.29118,138.937054 110.772832,139.117674 C112.394924,139.725958 115.26985,137.023915 117.063129,136.575175 C117.707227,136.414 119.981532,135.190792 120.625629,135.029617 C120.913894,134.957483 122.192491,135.638047 122.474395,135.544079 C123.430884,135.22525 124.829925,133.8733 125.376743,133.248365 C126.272614,132.224513 125.319183,132.356906 126.266533,132.356906 C126.41511,132.356906 126.607203,132.461965 126.712263,132.356906 C126.817322,132.251846 126.607203,132.016235 126.712263,131.911176 C126.817322,131.806116 127.050747,132.014003 127.157993,131.911176 C127.167263,131.902288 125.26848,131.897885 124.516937,131.897885 C124.023125,131.274061 123.777008,131.156672 123.03284,131.156672 C122.887647,129.966788 121.002956,130.055887 120.625629,129.510149 C120.545382,129.394085 121.422564,126.84612 121.51709,126.751061 C122.05467,126.210444 123.322049,125.663695 123.74407,124.821234 C123.810365,124.688891 123.639404,124.48184 123.74407,124.377174 C124.336707,123.784537 124.18813,125.120059 124.18813,123.931444 C124.18813,122.925591 124.039553,123.886174 124.615496,123.485714 C124.818808,123.344349 124.444118,122.921574 124.615496,122.742831 C124.714087,122.640004 124.944079,122.845473 125.042863,122.742831 C125.392174,122.379875 124.977763,119.554649 125.262395,119.1277 C125.708125,118.97968 125.911345,118.871154 126.005278,118.68364 C126.071823,118.550799 125.900219,118.342969 126.005278,118.23791 C126.215397,118.027791 126.686816,118.448226 126.896738,118.23791 C127.131262,118.002945 127.192778,117.643603 127.340798,117.34645 C127.637952,117.197874 127.997118,117.13542 128.232258,116.90072 C128.337022,116.796153 128.127494,116.561228 128.232258,116.45666 C128.507142,116.18229 129.655603,115.923106 129.864931,115.713777 C129.969991,115.608718 129.759872,115.373107 129.864931,115.268047 C129.969991,115.162988 130.17777,115.334493 130.310661,115.268047 C130.74569,115.050533 131.380758,114.377293 131.794758,114.081104 C132.592511,113.510364 132.929782,113.827064 133.802205,113.390852 C133.91046,113.336724 133.711358,111.444181 135.756012,109.929489 C136.854134,109.115993 139.728903,110.447634 141.152568,109.929489 C142.501485,109.438549 142.426702,107.077698 142.561546,107.023761 C142.791463,106.931794 143.166713,107.229561 143.304429,107.023761 C143.38675,106.900743 143.199567,106.68417 143.304429,106.5797 C143.409686,106.474838 143.617318,106.646245 143.750159,106.5797 C144.574094,106.16696 141.799204,103.835434 142.204004,103.160767 C142.707905,102.320932 145.090796,101.836717 145.531409,100.955492 C145.746536,100.525239 146.882679,99.3892319 147.312659,99.1742418 C147.578441,99.0413508 147.993999,99.3843608 148.204119,99.1742418 C148.309178,99.0691822 148.099256,98.8337684 148.204119,98.7285119 C148.658129,98.2727949 149.49855,98.8288968 150.133945,98.7285119 C150.597508,98.6552745 151.006553,98.3600305 151.469465,98.2827821 C151.545528,98.2700891 151.625429,100.902209 153.988236,102.165869 C155.974406,103.228099 157.053069,103.640079 159.496442,104.35272 C160.846654,104.746526 161.57653,107.21996 162.831919,107.429425 C164.465026,107.701914 166.991031,106.272523 167.098388,106.210763 C167.221868,106.139727 166.995561,105.881987 167.098388,105.783396 C167.205633,105.680569 167.436872,105.886224 167.544118,105.783396 C167.690028,105.643497 167.544118,104.412102 167.544118,104.167417 C167.544118,103.58105 167.255687,101.923581 167.544118,101.347801 C167.638227,101.159935 167.895879,101.090007 167.989847,100.902071 C168.118996,100.643773 168.126868,98.9491326 167.989847,98.6750911 C166.989671,96.6747375 168.061845,99.2150643 167.116751,98.2293613 C166.72877,97.8247091 167.397632,97.6998462 165.779562,96.8938413 C165.778704,96.8938413 163.99917,96.8938413 163.998312,96.8938413 C163.404284,96.2998129 163.70088,96.5969666 163.108522,96.0023817 L162.217062,96.0023817 C161.919909,95.7052285 161.622756,95.4080753 161.325603,95.1109221 C159.475027,95.2254372 159.79856,96.0797227 159.79856,94.1409983 C159.79856,93.8426498 155.677414,93.7657116 155.814916,92.5884592 C155.882841,92.0069079 158.986776,87.9395756 158.986776,87.3859834 C158.986776,86.4838784 158.33935,83.7414847 158.672263,83.1770921 C158.730163,83.0789332 160.180247,81.0749191 161.510905,79.707368 C162.708651,78.4764145 165.11101,77.5309984 165.577564,77.2199622 C166.362203,76.6968697 169.331545,75.1049887 170.45889,75.8844422 C170.609242,75.9883963 170.787658,76.9544236 170.886256,77.0530222 C170.991316,77.1580817 171.226927,76.9479627 171.331986,77.0530222 C171.553871,77.2749065 171.469771,78.5279963 171.759353,78.817578 C171.864412,78.9226375 172.099826,78.7127158 172.205082,78.817578 C172.309945,78.9220475 172.100416,79.1569724 172.205082,79.2616384 C172.424609,79.4811645 172.875347,79.4694787 173.094873,79.6890048 C173.269972,79.864104 172.888834,80.2945287 173.094873,80.4318878 C173.218496,80.5143033 173.435543,80.3268283 173.540602,80.4318878 C173.561864,80.4531497 174.091779,82.254598 174.578969,81.7674078 C174.702806,81.3898299 174.91964,81.5769836 175.024699,81.471924 C175.222801,81.2738219 175.12375,80.7785666 175.321852,80.5804644 C175.426912,80.4754049 175.660337,80.6832916 175.767582,80.5804644 C175.977655,80.3790465 175.659495,79.9775847 175.767582,79.7073682 C176.030484,79.0501127 176.636046,78.5654727 176.954525,77.9261184 C177.087018,77.6601376 176.821435,77.300341 176.954525,77.0346588 C177.259975,76.424903 176.259974,75.1385791 178.397407,70.998059 C179.850121,68.1839408 181.891027,63.377328 183.653835,60.9849001 C184.449841,59.9045846 186.584286,58.8335378 186.717177,58.5677559 C186.87379,58.2545289 187.329747,58.1499229 187.46006,57.8248729 C187.51514,57.6874824 187.355198,57.485282 187.46006,57.3808125 C187.565316,57.2759503 187.80073,57.485872 187.90579,57.3808125 C188.010849,57.275753 187.800927,57.0403391 187.90579,56.9350827 C188.010259,56.8302205 188.245282,57.0398468 188.34985,56.9350827 C189.16705,56.1163491 189.720961,54.5417308 190.873983,53.9652201 C192.766853,53.0187848 194.677503,52.0811023 196.516555,50.6998737 C197.396835,50.7427498 196.725871,50.0431586 196.960615,49.808414 C197.195535,49.5734938 197.586173,49.5618613 197.852075,49.3626842 C198.722446,48.710721 199.176239,47.7399539 199.930478,46.987128 C200.478392,46.4402404 202.872039,44.8395617 202.139094,43.740145 C201.917004,43.4070095 200.379995,44.0286868 200.079054,43.740145 C199.976227,43.6415542 200.160379,43.4297397 200.079054,43.3127786 C199.924935,43.0911234 197.171129,43.3127786 196.960615,43.3127786 C196.750262,43.3127786 195.477467,43.1632532 195.327942,43.3127786 C195.222882,43.4178381 195.430769,43.6512629 195.327942,43.7585084 C195.233687,43.8568131 192.807574,44.9527509 192.525019,45.0940284 C191.757187,45.4779448 189.944168,47.2016253 189.111096,47.6181612 C188.686122,47.8306486 187.825403,47.7169108 187.478423,48.063891 C187.373757,48.1685571 187.583285,48.403482 187.478423,48.5079514 C187.203343,48.7820009 185.694074,48.658522 185.40002,48.9536812 C185.301251,49.0528214 185.292564,49.4531392 184.508561,49.8451408 C183.870785,50.1640288 181.91134,49.9574342 181.243214,50.2908706 C181.055559,50.3845221 180.985209,50.6414201 180.797484,50.7349311 C180.540872,50.8627568 177.189325,50.9697309 176.954525,50.7349311 C176.911094,50.6915 176.884096,49.1910502 176.954525,49.1206212 C177.059585,49.0155617 177.276632,49.2030367 177.400255,49.1206212 C177.944484,48.7578022 180.090643,44.899265 180.370118,44.0723556 C180.804999,42.7856282 179.771297,42.7393844 179.497022,42.4764092 C179.394195,42.3778184 179.597753,42.149774 179.497022,42.0490428 C179.326251,41.8782719 178.906466,42.2499884 178.772502,42.0490428 C178.178785,41.1584667 178.873478,41.1575832 177.436982,41.1575832 C177.455418,40.275902 176.501889,40.9653727 176.248369,40.7118534 C176.14331,40.6067939 176.353429,40.3711831 176.248369,40.2661236 C176.135517,40.1532716 173.291039,40.1417418 173.166657,40.2661236 C173.065926,40.3668548 173.269299,40.5947066 173.166657,40.69349 C172.955402,40.8968028 171.924674,40.7910113 171.68256,41.1392198 C171.601236,41.2561808 171.785387,41.4679954 171.68256,41.5665862 C171.468069,41.7722404 171.005592,41.360932 170.791101,41.5665862 C170.688274,41.665177 170.855681,41.8669766 170.791101,41.9939526 C169.831344,43.8809931 170.847814,41.4931786 169.90131,42.4396824 C168.97908,43.3619132 171.310601,42.4036317 169.455581,43.331142 C169.32269,43.3975875 169.115107,43.2262798 169.009851,43.331142 C168.904989,43.4356115 169.112493,43.6685508 169.009851,43.7752024 C168.842382,43.9492129 168.419295,43.5742568 168.285331,43.7752024 C168.202916,43.8988256 168.351577,44.0879418 168.285331,44.2209322 C167.892931,45.0086824 167.492074,44.3250187 167.098388,45.1123918 C167.031942,45.2452828 167.203447,45.4530621 167.098388,45.5581216 C166.757616,45.8988934 165.694692,45.813051 165.317138,46.002182 C165.184297,46.0687272 165.422198,46.3428523 165.317138,46.4479118 C165.135242,46.6298074 163.422507,46.4019258 163.238735,46.4479118 C162.468923,46.6405451 161.766031,47.0876318 161.011755,47.3393714 C159.648492,47.7943607 157.2618,47.3393714 155.814913,47.3393714 C155.576419,47.3393714 151.396051,47.3730229 151.360954,47.3393714 C151.258127,47.2407806 151.463781,47.0105958 151.360954,46.912005 C151.253708,46.8091779 151.02247,47.0148321 150.915224,46.912005 C150.812397,46.8134142 151.015955,46.5853699 150.915224,46.4846386 C150.814493,46.3839074 150.586449,46.5874657 150.487858,46.4846386 C150.167494,46.1505097 150.353827,45.6115424 149.633125,45.6115424 C149.476149,44.8122115 148.026429,44.2836363 147.870238,44.1274458 C147.769507,44.0267146 147.951563,43.8170405 147.870238,43.7000794 C147.259082,43.2290747 147.275932,38.0474091 147.275932,37.0191406 C147.275932,35.6512154 147.426582,35.5403242 146.831872,34.3464312 C146.279144,33.2368193 147.441164,30.015887 146.831872,29.0026817 C146.503555,28.4567162 146.268162,28.2117424 145.940412,27.6654923 C145.816598,27.4591359 146.126133,27.1083301 145.940412,26.9226093 C145.719987,26.7021843 145.269937,26.7153997 145.048952,26.4952429 C144.688646,26.1362856 144.74981,25.1623363 144.456315,24.8809331 C144.34907,24.778106 144.115645,24.9859926 144.010586,24.8809331 C143.828734,24.6990814 144.218629,23.6900681 144.010586,23.5454131 C143.771638,23.3792697 143.379643,23.7068486 143.137489,23.5454131 C142.478076,23.1058044 144.18491,23.2482599 142.710123,23.2482599 C142.194354,22.7324904 142.474512,22.8025301 141.96724,22.8025301 C141.96724,22.8025301 141.540853,22.2034348 140.26995,21.6880389 C138.999048,21.1726431 135.319121,19.1574258 134.736573,19.1574259 C134.154026,19.1574261 131.349449,22.6909076 130.266212,20.4863512 C129.182975,18.2817948 132.01881,13.8632827 132.875688,12.4555888 Z" id="Path-5" sketch:type="MSShapeGroup"></path>
                <path d="M73.5108548,143.132417 C72.6392817,143.132252 71.8378575,141.689669 71.267449,141.405 C70.9022956,141.222766 66.8798591,140.292146 66.5318159,140.64019 C66.1470851,141.02492 65.9646316,142.285363 65.6649542,142.883596 C65.3046253,143.602904 63.5601123,144.575777 62.8098147,145.075976 C61.532179,145.927733 60.1395278,147.593186 59.2408902,148.491823 C58.4144111,149.318303 54.5660037,150.780238 53.3328153,151.397989 C52.6776231,151.726199 51.3210532,151.545107 50.7832559,152.060748 C50.740201,152.102029 51.2954603,159.140052 51.343964,159.186557 C51.3909943,159.23165 52.4627939,159.240742 52.5169792,159.186557 C53.0533863,158.65015 54.0240344,158.035111 54.5562827,157.503859 C55.0838694,156.977261 55.0945414,155.955379 55.8307757,155.464556 C56.4358246,155.06119 57.2560182,154.498544 57.7686014,153.98596 C58.2772523,153.47731 57.9934022,152.449519 58.4823863,151.958697 C58.6361796,151.804325 59.0622057,151.838108 59.2471967,151.653117 C59.5040233,151.39629 60.5773169,151.28804 60.82727,150.786255 C61.7657954,148.902147 61.8382273,148.653881 63.3768293,147.115279 C63.5511658,146.940943 64.3942349,147.185394 64.6513223,147.115279 C66.5292552,146.603116 73.8737671,144.257083 73.8737671,142.6858 L73.5108548,143.132417 Z" id="Path-6" sketch:type="MSShapeGroup"></path>
                <path d="M89.9131464,117.482223 C89.702361,117.476732 88.598676,117.146711 88.3831572,117.361423 C88.1985901,117.545299 87.7970301,117.458459 87.464437,117.724733 C85.2517995,119.49617 80.9027525,118.960293 80.1641765,119.698869 C79.9826964,119.880349 78.6472641,121.703487 79.1187519,122.031319 C80.9571278,123.309565 82.7217865,121.954162 84.7582315,120.935939 C85.8187768,120.405667 87.0869785,120.797959 88.3427389,120.168901 C88.9375483,119.870938 91.6044458,117.558064 90.5139704,117.558064 L89.9131464,117.482223 Z" id="Path-7" sketch:type="MSShapeGroup"></path>
            </g>
        </g>
    </g>
</svg>