<?xml version="1.0" encoding="UTF-8" standalone="no"?>
<svg width="248px" height="464px" viewBox="0 0 248 464" version="1.1" xmlns="http://www.w3.org/2000/svg" xmlns:xlink="http://www.w3.org/1999/xlink" xmlns:sketch="http://www.bohemiancoding.com/sketch/ns">
    <!-- Generator: Sketch 3.1.1 (8761) - http://www.bohemiancoding.com/sketch -->
    <title>Imported Layers 2</title>
    <desc>Created with Sketch.</desc>
    <defs></defs>
    <g id="web" stroke="none" stroke-width="1" fill="none" fill-rule="evenodd" sketch:type="MSPage">
        <g id="Mobile-Portrait" sketch:type="MSArtboardGroup" transform="translate(-36.000000, -2790.000000)" fill="#ACC3B1">
            <path d="M64.7517523,3138.67725 C66.8449086,3142.429 67.72532,3143.31074 68.606821,3144.52531 C69.4883221,3145.7377 70.3698231,3147.28292 70.8100288,3148.38618 C71.2513241,3149.48835 71.2513241,3150.15075 71.1401831,3150.48249 C71.0301316,3150.81205 70.8100288,3150.81205 70.1497202,3151.03357 C69.4883221,3151.2551 68.3867182,3151.69597 68.0565639,3152.57879 C67.72532,3153.46053 68.1666153,3154.78423 69.4883221,3156.77032 C70.8100288,3158.75641 73.0132365,3161.4038 74.5550461,3163.16946 C76.0979453,3164.93511 76.9794463,3165.81685 77.8598578,3166.69968 C78.7413588,3167.58251 79.6228598,3168.46424 80.3387389,3169.1812 C81.054618,3169.89925 81.6059647,3170.45142 81.8260676,3170.89229 C81.6059647,3171.99446 81.3858619,3171.99446 80.7244637,3171.60925 C80.0630655,3171.22294 78.9614616,3170.45142 78.4112045,3170.17534 C77.8598578,3170.67186 77.8598578,3171.00251 78.5212559,3171.55359 C79.1826541,3172.10577 80.5043608,3172.87729 81.6059647,3173.26469 C82.706479,3173.6499 83.5890696,3173.6499 84.2493782,3173.81468 C84.9096867,3173.98164 85.350982,3174.3123 86.2324831,3174.91794 C87.1128945,3175.52578 88.4356908,3176.40751 89.9775004,3177.29034 C91.51931,3178.17426 93.282312,3179.056 94.6040188,3179.71839 C95.9257255,3180.37969 96.8072265,3180.82056 97.4686247,3180.82056 C98.1289333,3180.82056 98.569139,3180.37969 99.0104343,3179.71839 C99.4517296,3179.056 99.8919353,3178.17426 100.332141,3177.95164 C100.773436,3177.7323 101.213642,3178.17426 101.654937,3178.83556 C102.095143,3179.49686 102.535349,3180.37969 102.975554,3181.04209 C103.41685,3181.70339 103.857056,3182.14535 104.518454,3182.58731 C105.178762,3183.02818 106.060263,3183.46904 107.161867,3184.02013 C108.263471,3184.57231 109.585178,3185.23361 110.907974,3186.55731 C117.517597,3193.17797 122.804424,3197.81145 125.889133,3200.34863 C128.972752,3202.8858 129.854253,3203.32667 130.295549,3203.76863 C130.735754,3204.2095 130.735754,3204.65037 131.728396,3206.52624 C132.718859,3208.40211 134.700874,3211.7119 139.989881,3219.65517 C141.311587,3222.30256 141.311587,3222.96496 141.090395,3223.958 C140.870292,3224.95105 140.430086,3226.27474 139.989881,3227.81887 C139.548585,3229.3641 139.10838,3231.12866 138.887187,3232.23192 C138.668174,3233.33409 138.668174,3233.77714 139.10838,3234.65888 C139.548585,3235.54171 140.430086,3236.86541 141.860755,3238.62997 C143.294692,3240.39563 145.276708,3242.60324 146.489452,3244.69955 C147.700018,3246.79586 148.140224,3248.78086 148.802712,3249.7739 C149.46302,3250.76585 150.344521,3250.76585 150.784727,3250.21477 C151.224933,3249.66259 151.224933,3248.56042 151.336074,3247.34585 C151.445036,3246.13237 151.665138,3244.80868 151.996382,3244.14737 C152.326537,3243.48498 152.766742,3243.48498 153.318089,3243.81563 C153.869436,3244.14737 154.529744,3244.80868 157.174247,3247.45607 C161.139368,3248.78086 161.139368,3250.10455 161.249419,3251.20672 C161.35947,3252.31108 161.579573,3253.1939 162.019779,3253.63477 C162.461074,3254.07564 163.122472,3254.07564 163.452627,3253.85521 C163.783871,3253.63477 163.783871,3253.1939 164.003973,3251.87021 C164.224076,3250.54542 164.664282,3248.3389 164.664282,3246.57324 C164.664282,3244.80868 164.224076,3243.48498 164.334128,3241.16824 C164.444179,3238.8515 165.105577,3235.54171 165.105577,3232.89323 C165.105577,3231.56953 167.087593,3229.58453 168.079145,3228.37105 C169.070698,3227.15648 169.070698,3226.71561 168.630492,3226.27474 C168.190286,3225.83278 167.307696,3225.39192 166.646297,3224.50909 C165.985989,3223.62626 165.545783,3222.30256 165.655834,3218.99278 C165.765886,3215.68299 166.427284,3210.3882 165.105577,3203.76863 C163.783871,3199.79645 164.444179,3197.14906 164.775423,3194.50167 C165.105577,3191.85427 165.105577,3189.20579 165.765886,3187.22079 C166.427284,3185.23361 167.747901,3183.90991 168.850595,3181.92382 C169.952199,3179.93882 170.83261,3177.29034 171.053802,3175.30534 C171.273905,3173.31816 170.83261,3171.99446 171.273905,3169.78903 C171.714111,3167.58251 173.036907,3164.49315 173.697216,3162.06619 C174.358614,3159.63924 174.358614,3157.87358 175.459128,3155.44553 C176.560732,3153.01966 178.76503,3149.93031 183.171445,3144.63443 C187.577861,3139.33965 194.186394,3131.83725 197.711309,3127.64463 C201.237313,3123.45202 201.677519,3122.56919 201.677519,3121.68745 C201.677519,3120.80463 201.237313,3119.92289 201.01721,3118.81854 C200.796018,3117.71527 200.796018,3116.39158 201.677519,3115.73027 C202.55902,3115.06788 204.322022,3115.06788 205.643728,3115.06788 C206.964346,3115.06788 207.846936,3115.06788 208.508334,3114.62701 C209.168643,3114.18505 209.608849,3113.30222 211.591953,3109.7731 C213.575058,3106.24287 217.098883,3100.06308 220.183592,3095.21025 C223.268301,3090.35524 225.911714,3086.82612 226.793215,3084.39807 C227.674716,3081.97002 226.793215,3080.64741 226.35192,3079.32371 C225.911714,3078.00002 225.911714,3076.67523 225.691611,3075.1311 C225.471509,3073.58697 225.030213,3071.8224 225.251406,3070.49762 C225.471509,3069.17392 226.35192,3068.29 227.895909,3064.32 C229.437718,3060.34782 231.640926,3053.28629 232.74253,3049.09477 C233.843044,3044.90324 233.843044,3043.57846 233.622941,3042.25476 C233.402839,3040.93106 232.962633,3039.60628 232.962633,3038.72454 C232.962633,3037.84171 233.402839,3037.40084 233.843044,3036.73845 C234.28434,3036.07715 234.724545,3035.19432 234.945738,3034.31149 C235.164751,3033.42866 235.164751,3032.54583 234.504442,3031.11192 C233.843044,3029.67692 232.521338,3027.69192 232.521338,3026.36822 C232.521338,3023.71974 233.843044,3023.05843 234.504442,3022.06539 C235.164751,3021.07234 235.164751,3019.74865 235.827239,3015.55603 C236.486458,3011.36342 237.809254,3004.30407 238.690755,2998.3458 C239.572256,2992.38862 240.013551,2987.53361 240.453757,2984.00339 C240.893963,2980.47317 241.334169,2978.26665 241.775464,2975.83969 C242.21567,2973.41273 242.655875,2970.76534 243.537376,2968.33838 C244.418877,2965.91033 245.739494,2963.7038 246.401982,2962.38011 C247.062291,2961.05641 247.062291,2960.61445 246.842188,2959.73271 C246.622085,2958.84989 246.181879,2957.52619 245.961777,2956.2014 C245.739494,2954.8788 245.739494,2953.5551 245.961777,2952.23031 C246.181879,2950.90662 246.622085,2949.58292 247.282394,2947.81726 C247.943792,2946.0527 248.824203,2943.84617 249.265499,2942.52139 C249.705704,2941.19769 249.705704,2940.75682 249.265499,2939.65356 C248.824203,2938.5503 247.943792,2936.78573 247.723689,2935.90291 C247.503586,2935.02008 247.943792,2935.02008 250.14591,2933.47595 C252.350207,2931.93073 256.316417,2928.84246 258.298432,2927.07681 C260.281537,2925.31115 260.281537,2924.87028 260.061435,2923.76702 C259.841332,2922.66376 259.400036,2920.8981 259.400036,2919.57441 C259.400036,2918.25071 259.841332,2917.36897 260.50164,2915.82375 C261.163038,2914.27853 262.04345,2912.0731 263.365157,2909.86657 C264.687953,2907.66005 266.449865,2905.45352 267.331366,2903.46743 C268.211778,2901.48134 268.211778,2899.71678 268.653073,2898.39308 C269.094368,2897.06939 269.975869,2896.18547 270.416075,2894.64134 C270.856281,2893.09721 270.856281,2890.89068 271.517679,2888.90459 C272.179077,2886.9185 273.500784,2885.15394 274.161092,2884.05067 C274.822491,2882.94741 274.822491,2882.50545 274.602388,2882.28502 C274.382285,2882.06458 273.94099,2882.06458 272.619283,2880.74089 C271.297576,2879.41719 269.094368,2876.76871 267.771572,2875.22458 C266.449865,2873.68045 266.00966,2873.23849 265.789557,2872.79762 C265.569454,2872.35566 265.569454,2871.91479 265.348261,2870.59109 C265.128159,2869.2674 264.687953,2867.06087 264.46785,2864.85435 C264.247747,2862.64782 264.247747,2860.4413 264.026555,2859.1176 C263.807541,2857.79391 263.365157,2857.35304 263.585259,2856.24869 C263.807541,2855.14542 264.687953,2853.38086 265.348261,2851.83564 C266.00966,2850.29151 266.449865,2848.96781 267.111263,2847.20215 C267.771572,2845.43759 268.653073,2843.23107 270.195972,2840.80302 C271.738871,2838.37606 273.94099,2835.72866 275.482799,2833.9641 C277.024609,2832.19844 277.907199,2831.31562 278.7887,2830.87475 C279.669112,2830.43279 280.550613,2830.43279 281.432114,2830.21235 C282.312525,2829.99192 283.194026,2829.55105 283.635322,2829.10909 C284.075527,2828.66822 284.075527,2828.22626 283.855425,2827.56496 C283.635322,2826.90257 283.194026,2826.01974 282.312525,2825.35844 C281.432114,2824.69713 280.109318,2824.25517 279.008803,2824.03474 C277.907199,2823.81431 277.024609,2823.81431 276.3643,2822.93148 C275.702902,2822.04865 275.262696,2820.28409 274.382285,2818.73886 C273.500784,2817.19473 272.179077,2815.87104 270.636178,2815.20864 C269.094368,2814.54625 267.331366,2814.54625 265.789557,2814.32581 C264.247747,2814.10538 262.924951,2813.66342 261.603244,2813.22255 C260.281537,2812.78168 258.958741,2812.33972 257.858227,2811.89886 C256.756623,2811.45799 255.875122,2811.01712 254.552325,2810.79559 C253.230619,2810.57516 251.468706,2810.57516 249.925807,2810.35473 C248.383998,2810.1332 247.062291,2809.69233 246.181879,2809.03103 C245.299289,2808.36864 244.859083,2807.48581 243.648517,2806.38255 C242.435772,2805.27928 240.453757,2803.95559 239.130961,2801.30819 C232.521338,2799.9845 232.521338,2799.3221 232.081132,2797.88819 C231.640926,2796.45319 230.759425,2794.24666 229.657821,2792.70253 C228.556217,2791.1584 227.233421,2790.27557 225.471509,2790.05405 C223.709596,2789.83361 221.506388,2790.27557 219.083078,2791.59927 C216.658678,2792.92297 214.015264,2795.12949 211.591953,2796.89515 C209.168643,2798.65971 206.964346,2799.9845 205.643728,2801.52863 C204.322022,2803.07276 203.880726,2804.83841 203.440521,2806.16211 C202.999225,2807.48581 202.55902,2808.36864 202.117724,2809.03103 C201.677519,2809.69233 201.237313,2810.1332 199.695503,2811.01712 C198.152604,2811.89886 195.509191,2813.22255 193.304893,2814.10538 C191.102775,2814.98821 189.340863,2815.43017 186.256154,2816.09147 C183.171445,2816.75277 178.76503,2817.6356 176.340629,2818.51843 C173.917319,2819.40126 173.477113,2820.28409 171.273905,2822.04865 C169.070698,2823.81431 165.105577,2826.4617 162.682267,2828.00583 C160.257867,2829.55105 159.377455,2829.99192 158.055748,2830.87475 C156.732952,2831.75648 154.97104,2833.08127 153.208038,2834.84584 C151.445036,2836.61149 149.683123,2838.81802 147.921211,2841.24498 C146.158209,2843.67193 144.395207,2846.32042 142.412102,2848.52694 C140.430086,2850.73238 138.226879,2852.49803 137.125275,2854.92499 C136.023671,2857.35304 136.023671,2860.4413 135.803568,2862.86826 C135.582376,2865.29522 135.14217,2867.06087 134.922067,2868.605 C134.700874,2870.14913 134.700874,2871.47392 134.260669,2872.35566 C133.821553,2873.23849 132.938962,2873.68045 131.837358,2875.22458 C130.735754,2876.76871 129.414048,2879.41719 128.092341,2880.96132 C126.770634,2882.50545 125.448927,2882.94741 124.126131,2883.16785 C122.804424,2883.38828 121.482718,2883.38828 120.381114,2884.05067 C119.27951,2884.71307 118.398009,2886.03676 116.636096,2888.02176 C114.873094,2890.00785 112.229681,2892.65525 110.907974,2895.30373 C106.941764,2903.247 104.298351,2907.88048 101.654937,2912.40375 C99.0104343,2916.92701 96.3659312,2921.34006 94.8252112,2924.42942 C93.282312,2927.51768 92.8421063,2929.28333 91.9606053,2931.71029 C91.0791043,2934.13725 89.7573976,2937.2266 88.215588,2939.65356 C86.6726888,2942.08052 84.9096867,2943.84617 83.1477743,2946.93444 C81.3858619,2950.02379 79.6228598,2954.43684 78.3000635,2957.30576 C76.9794463,2960.17358 76.0979453,2961.49728 74.9963414,2963.0425 C73.8947376,2964.58663 72.5730308,2966.35229 71.2513241,2968.11685 C69.9285278,2969.88251 68.606821,2971.64707 67.0650114,2974.07403 C65.5221122,2976.50208 63.7601998,2979.59143 62.5474549,2983.12056 C61.3368892,2986.65187 60.675491,2990.62296 56.7103708,2994.59514 C51.4224543,3001.21363 49.4393494,3004.5245 47.5662959,3008.16494 C45.6943321,3011.80538 43.93133,3015.77647 42.8297261,3019.30778 C41.7281222,3022.838 41.2879165,3025.92735 41.0678137,3028.79518 C40.8466212,3031.6641 40.8466212,3034.31149 41.0678137,3036.51801 C41.2879165,3038.72454 41.7281222,3040.4891 41.9482251,3042.25476 C42.1694176,3044.01932 42.1694176,3045.78498 42.1694176,3048.21194 C42.1694176,3050.6389 42.1694176,3053.72934 41.9482251,3056.37564 C41.7281222,3059.02304 41.2879165,3061.23065 40.8466212,3064.09848 C40.4064155,3066.9663 39.9662098,3070.49762 39.3048116,3074.24827 C38.6434135,3078.00002 37.7630021,3081.97002 37.1016039,3084.39807 C36.4402057,3086.82612 36,3087.70785 36,3088.37025 C36,3089.03155 36.4402057,3089.47242 36.881501,3089.91438 C37.3217067,3090.35524 37.7630021,3090.79611 37.9831049,3092.78329 C38.2032078,3094.76829 38.2032078,3098.29851 38.6434135,3100.50613 C39.0847088,3102.71156 39.9662098,3103.59439 42.7196747,3106.352 C45.4731396,3109.1107 50.1007476,3113.74418 55.3875745,3120.36376 C59.3537843,3128.30703 62.6585959,3134.9266 64.7517523,3138.67725 Z" id="Imported-Layers-2" sketch:type="MSShapeGroup"></path>
        </g>
    </g>
</svg>