<?xml version="1.0" encoding="UTF-8" standalone="no"?>
<svg width="343px" height="3149px" viewBox="0 0 343 3149" version="1.1" xmlns="http://www.w3.org/2000/svg" xmlns:xlink="http://www.w3.org/1999/xlink" xmlns:sketch="http://www.bohemiancoding.com/sketch/ns">
    <!-- Generator: Sketch 3.1.1 (8761) - http://www.bohemiancoding.com/sketch -->
    <title>Path 12</title>
    <desc>Created with Sketch.</desc>
    <defs></defs>
    <g id="web" stroke="none" stroke-width="1" fill="none" fill-rule="evenodd" sketch:type="MSPage">
        <g id="Artboard-4" sketch:type="MSArtboardGroup" transform="translate(-276.000000, -247.000000)" stroke="#526B6B" stroke-width="9">
            <path d="M451.345641,250.573828 L388.064553,313.854917 L502.274279,428.064644 L426.663855,503.675068 L504.865223,581.876436 L282.509376,804.232282 L477.429796,999.152702 L287.013327,1189.56917 L517.161136,1419.71698 L435.006595,1501.87152 L612.250761,1679.11569 L411.735036,1879.63141 L497.937409,1965.83379 L292.615962,2171.15523 L466.331251,2344.87052 L370.06001,2441.14176 L488.91729,2559.99904 L437.049724,2611.86661 L481.055209,2655.87209 L412.26784,2724.65946 L470.129385,2782.521 L430.555181,2822.09521 L464.705105,2856.24513 L442.165676,2878.78456 L457.085916,2893.7048 L444.260101,2906.53062 L451.245305,2913.51582 L451.245308,3395.77939" id="Path-12" sketch:type="MSShapeGroup"></path>
        </g>
    </g>
</svg>